<svg width="43" height="51" viewBox="0 0 43 51" fill="none" xmlns="http://www.w3.org/2000/svg">
<path d="M0.5 3.30848C0.5 1.48869 1.98869 0 3.80848 0H39.5774C41.3972 0 42.8853 1.48869 42.8853 3.30848V16.0124C42.8853 23.3478 40.1541 38.9047 21.8522 50.4836C21.8522 50.4836 2.0186 42.2017 0.5 16.0124V3.30848Z" fill="#A51C30"/>
<path d="M36.11 19.8741C37.1989 19.8741 38.0904 20.7657 38.0904 21.8555C38.0904 22.9449 37.1989 23.8118 36.11 23.8118C35.0196 23.8118 34.1528 22.9449 34.1528 21.8555C34.1528 20.7657 35.0196 19.8741 36.11 19.8741Z" fill="white"/>
<path d="M7.76385 23.9209V13.5804H10.8876V15.2097C11.5084 14.3953 12.6523 13.3668 14.2822 13.3668C16.0091 13.3668 16.824 14.0847 17.1147 15.2097C17.736 14.4147 18.8999 13.3668 20.5292 13.3668C22.6245 13.3668 23.5559 14.686 23.5559 16.5294V23.9209H20.4326V17.3637C20.4326 16.4323 20.2191 15.9475 19.3071 15.9475C18.5315 15.9475 17.9102 16.3741 17.2317 16.9754V23.9209H14.108V17.3637C14.108 16.4323 13.8949 15.9475 12.9824 15.9475C12.2068 15.9475 11.5855 16.3741 10.8876 16.9754V23.9209H7.76385Z" fill="white"/>
<path d="M24.3326 27.51L24.9922 25.1041C25.2829 25.1817 26.0207 25.3759 26.9516 25.3759C27.6306 25.3759 28.0184 25.124 28.2708 24.4833L28.465 23.979L24.5074 13.5803H27.7277L29.9977 20.2933H30.0366L32.3255 13.5803H35.3522L31.0068 25.007C30.3084 26.7922 29.3575 27.8789 27.2817 27.8789C25.7489 27.8789 24.8757 27.6653 24.3326 27.51Z" fill="white"/>
</svg>
