<svg xmlns="http://www.w3.org/2000/svg" width="280" height="95" viewBox="0 0 280 95" fill="none">
<path d="M0 6.80913C0 3.40713 2.783 0.624131 6.185 0.624131H73.0526C76.4546 0.624131 79.2366 3.40713 79.2366 6.80913V30.5583C79.2366 44.2713 74.1307 73.354 39.9165 95C39.9165 95 2.83892 79.5174 0 30.5583V6.80913Z" fill="#A51C30"/>
<path d="M66.5707 42.7775C68.6062 42.7775 70.2729 44.4442 70.2729 46.4816C70.2729 48.5181 68.6062 50.1387 66.5707 50.1387C64.5322 50.1387 62.9117 48.5181 62.9117 46.4816C62.9117 44.4442 64.5322 42.7775 66.5707 42.7775Z" fill="white"/>
<path d="M13.5793 50.3427V31.0117H19.419V34.0576C20.5795 32.5352 22.718 30.6125 25.7649 30.6125C28.9932 30.6125 30.5167 31.9544 31.0601 34.0576C32.2216 32.5715 34.3974 30.6125 37.4433 30.6125C41.3603 30.6125 43.1015 33.0786 43.1015 36.5248V50.3427H37.2628V38.0845C37.2628 36.3433 36.8635 35.4369 35.1586 35.4369C33.7087 35.4369 32.5473 36.2344 31.2789 37.3586V50.3427H25.4392V38.0845C25.4392 36.3433 25.0409 35.4369 23.335 35.4369C21.8851 35.4369 20.7237 36.2344 19.419 37.3586V50.3427H13.5793Z" fill="white"/>
<path d="M44.5535 57.0523L45.7866 52.5546C46.3301 52.6998 47.7093 53.0627 49.4495 53.0627C50.7189 53.0627 51.4438 52.5919 51.9157 51.3941L52.2786 50.4514L44.8802 31.0116H50.9004L55.144 43.5611H55.2166L59.4956 31.0116H65.1538L57.0304 52.3731C55.7248 55.7104 53.9473 57.7419 50.0666 57.7419C47.2012 57.7419 45.5688 57.3427 44.5535 57.0523Z" fill="white"/>
<path d="M95.3348 50.2075V24.722H100.544V34.667H112.037V24.722H117.29V50.2075H112.037V39.1442H100.544V50.2075H95.3348Z" fill="white"/>
<path d="M138.079 40.6078L136.099 35.0977L134.635 30.8354H134.506L132.999 35.0114L130.976 40.6078H138.079ZM132.268 24.6367H137.217L146.818 50.2075H141.523L139.542 44.6111H129.556L127.489 50.2075H122.668L132.268 24.6367Z" fill="white"/>
<path d="M157.32 36.5613H162.012C165.585 36.5613 167.393 35.5283 167.393 32.6001C167.393 29.7161 165.585 28.7695 162.012 28.7695H157.32V36.5613ZM152.196 50.2075V24.723H162.184C168.685 24.723 172.473 26.9184 172.473 32.3853C172.473 36.5181 170.407 38.6704 166.747 39.5748L172.903 50.2075H167.393L161.625 40.1771H157.32V50.2075H152.196Z" fill="white"/>
<path d="M185.644 50.2938L176.346 24.723H181.641L186.635 39.101L188.184 43.8361H188.27L189.906 39.101L195.028 24.723H199.936L190.595 50.2938H185.644Z" fill="white"/>
<path d="M216.551 40.6078L214.571 35.0977L213.107 30.8354H212.978L211.472 35.0114L209.449 40.6078H216.551ZM210.74 24.6367H215.69L225.29 50.2075H219.996L218.015 44.6111H208.028L205.962 50.2075H201.14L210.74 24.6367Z" fill="white"/>
<path d="M235.792 36.5613H240.484C244.058 36.5613 245.866 35.5283 245.866 32.6001C245.866 29.7161 244.058 28.7695 240.484 28.7695H235.792V36.5613ZM230.67 50.2075V24.723H240.657C247.158 24.723 250.945 26.9184 250.945 32.3853C250.945 36.5181 248.879 38.6704 245.219 39.5748L251.376 50.2075H245.866L240.098 40.1771H235.792V50.2075H230.67Z" fill="white"/>
<path d="M262.996 46.161H266.267C272.252 46.161 274.791 43.6213 274.791 37.4216C274.791 31.4377 272.209 28.8548 266.224 28.8548H262.996V46.161ZM257.786 24.722H265.923C274.189 24.722 280 28.0377 280 37.3353C280 46.8497 274.059 50.2075 265.923 50.2075H257.786V24.722Z" fill="white"/>
</svg>
